# xmcd
#
# Track frame offsets:
#	150
#	18719
#	36695
#	53952
#	74892
#	94708
#	113504
#	133218
#	155824
#	174535
#	194833
#	208453
#	222517
#	238450
#	254499
#	269852
#	281992
#	302031
#	317643
#	330698
#
# Disc length: 4626 seconds
#
# Revision: 0
# Processed by: cddbd v1.5.2PL0 Copyright (c) Steve Scherf et al.
# Submitted via: EasyCDDAExtractor 16.0.8.1
#
DISCID=64121014
DTITLE=Legendás Francia és Olasz örökzöldek - CD 4
DYEAR=1900
DGENRE=
TTITLE0=Solo noi
TTITLE1=L'Italiano
TTITLE2=Serenata
TTITLE3=Mediterraneo
TTITLE4=Napoli
TTITLE5=Emozioni
TTITLE6=Et si tu N'existais pas
TTITLE7=L'été indien
TTITLE8=Voici les Clés
TTITLE9=Insieme: 1992
TTITLE10=Canto di liberta
TTITLE11=Arrivederci a Bahia
TTITLE12=Angeli
TTITLE13=Che angelo sei
TTITLE14=Canzone blu
TTITLE15=Felicitá
TTITLE16=Sharazan
TTITLE17=Ci sará
TTITLE18=Gli innamorati
TTITLE19=Magic, oh magic
EXTD=
EXTT0=
EXTT1=
EXTT2=
EXTT3=
EXTT4=
EXTT5=
EXTT6=
EXTT7=
EXTT8=
EXTT9=
EXTT10=
EXTT11=
EXTT12=
EXTT13=
EXTT14=
EXTT15=
EXTT16=
EXTT17=
EXTT18=
EXTT19=
PLAYORDER=
